<svg version="1.1" viewBox="0 0 96 96" xmlns="http://www.w3.org/2000/svg" xmlns:xlink="http://www.w3.org/1999/xlink" id="Icons_SawBlade" overflow="hidden"><style>
.MsftOfcThm_Background1_Fill {
 fill:#FFFFFF; 
}
</style>
<path d=" M 48 56 C 43.6 56 40 52.4 40 48 C 40 43.6 43.6 40 48 40 C 52.4 40 56 43.6 56 48 C 56 52.4 52.4 56 48 56 Z M 85.9 53 C 84.8 50 83.6 47 82.1 44.1 C 81.8 43.6 81.8 43.1 82.1 42.6 C 82.3 42.1 82.8 41.7 83.3 41.6 L 83.9 41.5 C 84.5 41.4 85 40.9 85.2 40.3 C 85.4 39.7 85.3 39.1 84.8 38.6 C 82.9 36.4 80 33.2 77.9 31.2 C 77.5 30.8 77.3 30.3 77.4 29.7 C 77.5 29.2 77.8 28.7 78.2 28.4 L 78.3 28.3 C 78.8 28 79.2 27.4 79.2 26.7 C 79.2 26.1 78.8 25.5 78.3 25.2 C 75.6 23.8 71.7 21.8 69.1 20.7 C 68.6 20.5 68.2 20.1 68.1 19.5 C 68 19 68.1 18.4 68.4 18 L 68.5 17.8 C 68.9 17.3 69 16.6 68.7 16 C 68.4 15.4 67.9 15 67.3 15 C 64.3 14.8 59.9 14.4 57.1 14.4 C 56.6 14.4 56.1 14.1 55.7 13.7 C 55.4 13.3 55.3 12.7 55.4 12.2 L 55.4 12 C 55.6 11.4 55.4 10.7 54.9 10.3 C 54.4 9.9 53.8 9.7 53.2 9.9 C 50.4 10.8 46.2 12.2 43.6 13.3 C 43.1 13.5 42.5 13.5 42.1 13.2 C 41.6 12.9 41.3 12.5 41.3 11.9 L 41.3 11.7 C 41.2 11.1 40.8 10.5 40.2 10.3 C 39.6 10.1 38.9 10.2 38.5 10.6 C 36.2 12.6 32.9 15.5 30.9 17.4 C 30.5 17.8 30 18 29.5 17.9 C 29 17.8 28.5 17.5 28.2 17.1 L 28.1 16.9 C 27.8 16.4 27.2 16 26.6 16.1 C 26 16.1 25.4 16.5 25.1 17 C 23.7 19.7 21.8 23.7 20.7 26.2 C 20.5 26.7 20.1 27.1 19.6 27.2 C 19.1 27.3 18.5 27.2 18.1 26.9 L 17.9 27 C 17.4 26.6 16.7 26.5 16.1 26.8 C 15.5 27.1 15.1 27.6 15.1 28.2 C 14.9 31.2 14.5 35.6 14.5 38.4 C 14.5 38.9 14.3 39.4 13.8 39.8 C 13.4 40.1 12.8 40.2 12.3 40.1 L 12.1 40.1 C 11.5 39.9 10.8 40.1 10.4 40.6 C 10 41.1 9.8 41.7 10 42.3 C 10.9 45.1 12.3 49.4 13.3 52 C 13.5 52.5 13.5 53.1 13.2 53.5 C 13 54 12.6 54.3 12 54.4 L 11.8 54.4 C 11.2 54.5 10.6 54.9 10.4 55.5 C 10.2 56.1 10.3 56.8 10.7 57.2 C 12.6 59.5 15.5 62.9 17.5 64.9 C 17.9 65.3 18 65.8 18 66.4 C 17.9 66.9 17.6 67.4 17.2 67.7 L 17.1 67.7 C 16.5 68 16.2 68.6 16.2 69.3 C 16.2 70 16.6 70.5 17.2 70.8 L 26.4 75.2 C 26.9 75.4 27.3 75.9 27.4 76.4 C 27.5 76.9 27.4 77.5 27 77.9 L 26.8 78 C 26.4 78.5 26.3 79.2 26.6 79.8 C 26.9 80.4 27.4 80.8 28.1 80.8 L 38.3 81.3 C 38.8 81.3 39.3 81.6 39.6 82 C 39.9 82.4 40 83 39.9 83.5 L 39.8 83.8 C 39.6 84.4 39.8 85.1 40.3 85.5 C 40.8 85.9 41.4 86.1 42.1 85.9 L 51.8 82.4 C 52.3 82.3 52.8 82.3 53.2 82.5 C 53.6 82.7 53.9 83.2 54 83.6 L 54.2 84.4 C 54.3 85 54.8 85.5 55.4 85.7 C 56 85.9 56.7 85.7 57.1 85.3 L 64.3 78.3 C 64.7 77.9 65.2 77.8 65.7 77.8 C 66.2 77.9 66.7 78.2 66.9 78.6 L 67.1 78.9 C 67.4 79.5 68 79.8 68.7 79.8 C 69.3 79.8 69.9 79.4 70.2 78.8 L 74.7 69.1 C 74.9 68.7 75.2 68.3 75.6 68.2 C 76 68 76.5 68 76.9 68.2 L 78.1 68.7 C 78.6 68.9 79.3 68.9 79.7 68.5 C 80.2 68.2 80.5 67.6 80.5 67 L 80.5 56.9 C 80.5 55.9 81.3 55.2 82.2 55.2 L 84.2 55.2 C 84.7 55.2 85.3 54.9 85.6 54.4 C 86 54.1 86.1 53.5 85.9 53 Z" stroke="none" stroke-width="1" stroke-dasharray="" stroke-dashoffset="1" fill="#FFFFFF" fill-opacity="1"/></svg>