<svg version="1.1" viewBox="0 0 96 96" xmlns="http://www.w3.org/2000/svg" xmlns:xlink="http://www.w3.org/1999/xlink" id="Icons_TrafficCone" overflow="hidden"><style>
.MsftOfcThm_Background1_Fill {
 fill:#FFFFFF; 
}
</style>
<path d=" M 81.2 65.3 L 67.2 56.7 L 68.8 63.2 C 68.9 63.8 69 64.4 69 64.9 C 69 71.7 60 76.9 48 76.9 C 36 76.9 27 71.7 27 64.9 C 27 64.3 27.1 63.8 27.2 63.2 L 28.8 56.7 L 14.8 65.3 C 13.5 66.1 13.5 67.9 14.8 68.7 L 45.9 87.7 C 47.2 88.5 48.8 88.5 50.1 87.7 L 81.2 68.7 C 82.5 67.9 82.5 66.1 81.2 65.3 Z" stroke="none" stroke-width="1" stroke-dasharray="" stroke-dashoffset="1" fill="#FFFFFF" fill-opacity="1"/><path d=" M 41.3 43.3 C 43.3 43.8 45.6 44 48 44 C 50.4 44 52.6 43.7 54.7 43.3 L 57 52.7 C 54.4 53.6 51.3 54.1 48 54.1 C 44.7 54.1 41.6 53.6 39 52.7 L 41.3 43.3 Z M 46.5 21.9 C 47 21.9 47.5 22 48 22 C 48.5 22 49 22 49.5 21.9 L 51.9 31.7 C 50.6 31.9 49.3 32 48 32 C 46.7 32 45.4 31.9 44.1 31.8 L 46.5 21.9 Z M 48 74 C 57.9 74 66 70 66 65 C 66 64.6 65.9 64.3 65.9 64 L 52.9 10.6 C 52.6 9.1 50.5 8 48 8 C 45.5 8 43.4 9.1 43.1 10.6 L 30.1 64 C 30 64.3 30 64.7 30 65 C 30 70 38.1 74 48 74 Z" stroke="none" stroke-width="1" stroke-dasharray="" stroke-dashoffset="1" fill="#FFFFFF" fill-opacity="1"/></svg>