<svg version="1.1" viewBox="0 0 96 96" xmlns="http://www.w3.org/2000/svg" xmlns:xlink="http://www.w3.org/1999/xlink" id="Icons_JackHammer" overflow="hidden"><style>
.MsftOfcThm_Background1_Fill {
 fill:#FFFFFF; 
}
</style>
<path d=" M 56 14 L 40 14 C 38.9 14 38 13.1 38 12 C 38 10.9 38.9 10 40 10 L 56 10 C 57.1 10 58 10.9 58 12 C 58 13.1 57.1 14 56 14 Z M 58 20 C 58 21.1 57.1 22 56 22 L 40 22 C 38.9 22 38 21.1 38 20 C 38 18.9 38.9 18 40 18 L 56 18 C 57.1 18 58 18.9 58 20 Z M 58 28 C 58 29.1 57.1 30 56 30 L 40 30 C 38.9 30 38 29.1 38 28 C 38 26.9 38.9 26 40 26 L 56 26 C 57.1 26 58 26.9 58 28 Z M 79 13 L 66 13 L 66 11.8 C 66 11.3 65.8 10.8 65.4 10.4 L 62 7 C 62 5.3 60.7 4 59 4 L 37 4 C 35.3 4 34 5.3 34 7 L 30.6 10.4 C 30.2 10.8 30 11.3 30 11.8 L 30 13 L 17 13 C 15.3 13 14 14.3 14 16 C 14 17.7 15.3 19 17 19 L 30 19 L 30 20.2 C 30 20.7 30.2 21.2 30.6 21.6 L 34 25 L 34 34 C 34 35.1 34.9 36 36 36 L 60 36 C 61.1 36 62 35.1 62 34 L 62 25 L 65.4 21.6 C 65.8 21.2 66 20.7 66 20.2 L 66 19 L 79 19 C 80.7 19 82 17.7 82 16 C 82 14.3 80.7 13 79 13 Z" stroke="none" stroke-width="1" stroke-dasharray="" stroke-dashoffset="1" fill="#FFFFFF" fill-opacity="1"/><path d=" M 36 44 L 40 48 L 40 68 L 38 70 L 38 74 L 44 74 L 44 78 L 46 78 L 46 88 L 48 92 L 50 88 L 50 78 L 52 78 L 52 74 L 58 74 L 58 70 L 56 68 L 56 48 L 60 44 L 60 40 L 36 40 Z" stroke="none" stroke-width="1" stroke-dasharray="" stroke-dashoffset="1" fill="#FFFFFF" fill-opacity="1"/></svg>