<svg version="1.1" viewBox="0 0 96 96" xmlns="http://www.w3.org/2000/svg" xmlns:xlink="http://www.w3.org/1999/xlink" id="Icons_Hammer" overflow="hidden"><style>
.MsftOfcThm_Background1_Fill {
 fill:#FFFFFF; 
}
</style>
<path d=" M 91.3 34 L 87.5 30.2 C 86.6 29.3 85.3 29.3 84.4 30.1 C 83.6 30.9 82.3 31 81.4 30.2 C 80.5 29.3 80.5 27.8 81.4 26.9 C 82.2 26 82.1 24.7 81.3 23.9 L 72 14.7 C 66.4 9.1 55.2 7.2 44.2 10.2 C 44.1 10.2 44 10.3 43.9 10.3 C 43.5 10.6 43.2 11 43.3 11.5 C 43.4 12 43.7 12.4 44.2 12.6 C 45.6 13.1 48.2 13.9 48.2 13.9 C 54.3 16 60.4 24 61.2 25.6 L 32.3 54.3 L 31.5 53.5 C 30.6 52.6 29.2 52.6 28.4 53.5 L 5.2 76.8 L 5.3 76.9 C 3.4 79.5 3.7 83 6 85.3 C 8.3 87.5 11.8 87.9 14.4 86 L 14.5 86.1 L 37.8 62.8 C 38.7 61.9 38.7 60.5 37.8 59.7 L 37 58.9 L 65.7 30.2 L 70.3 34.8 C 71.2 35.7 72.5 35.7 73.4 34.9 C 74.2 34.1 75.5 34 76.4 34.8 C 77.3 35.7 77.3 37.2 76.4 38.1 C 75.6 39 75.7 40.3 76.5 41.1 L 80.4 44.9 C 81.3 45.8 82.7 45.8 83.6 44.9 L 91.3 37.2 C 91.7 36.8 92 36.2 92 35.6 C 92 35 91.8 34.4 91.3 34 Z" stroke="none" stroke-width="1" stroke-dasharray="" stroke-dashoffset="1" fill="#FFFFFF" fill-opacity="1"/></svg>