<svg version="1.1" viewBox="0 0 96 96" xmlns="http://www.w3.org/2000/svg" xmlns:xlink="http://www.w3.org/1999/xlink" id="Icons_PocketKnife" overflow="hidden"><style>
.MsftOfcThm_Background1_Fill {
 fill:#FFFFFF; 
}
</style>
<path d=" M 79.4 60.9 C 77.7 60.9 76.4 59.6 76.4 57.9 C 76.4 56.2 77.7 54.9 79.4 54.9 C 81.1 54.9 82.4 56.2 82.4 57.9 C 82.4 58.7 82.1 59.5 81.5 60 C 80.9 60.6 80.2 60.9 79.4 60.9 Z M 91.3 56.4 C 90.5 50.4 85.4 45.9 79.4 45.9 L 23.4 45.9 C 16.8 45.9 11.4 51.3 11.4 57.9 C 11.4 64.5 16.8 69.9 23.4 69.9 L 33.4 69.9 L 33.4 65.9 C 33.4 64.8 34.3 63.9 35.4 63.9 C 36.5 63.9 37.4 64.8 37.4 65.9 L 37.4 69.9 L 41.4 69.9 L 41.4 65.9 C 41.4 64.8 42.3 63.9 43.4 63.9 C 44.5 63.9 45.4 64.8 45.4 65.9 L 45.4 69.9 L 49.4 69.9 L 49.4 65.9 C 49.4 64.8 50.3 63.9 51.4 63.9 C 52.5 63.9 53.4 64.8 53.4 65.9 L 53.4 69.9 L 57.4 69.9 L 57.4 65.9 C 57.4 64.8 58.3 63.9 59.4 63.9 C 60.5 63.9 61.4 64.8 61.4 65.9 L 61.4 69.9 L 65.4 69.9 L 65.4 65.9 C 65.4 64.8 66.3 63.9 67.4 63.9 C 68.5 63.9 69.4 64.8 69.4 65.9 L 69.4 69.9 L 79.4 69.9 C 82.9 69.9 86.1 68.4 88.4 65.8 C 90.7 63.2 91.7 59.8 91.3 56.4 Z" stroke="none" stroke-width="1" stroke-dasharray="" stroke-dashoffset="1" fill="#FFFFFF" fill-opacity="1"/><path d=" M 44.6 20.6 L 20 9.9 L 22 14.3 C 26.2 24.9 37.7 34.6 48.3 41.9 L 75.1 41.9 L 44.6 20.6 Z" stroke="none" stroke-width="1" stroke-dasharray="" stroke-dashoffset="1" fill="#FFFFFF" fill-opacity="1"/></svg>