<svg version="1.1" viewBox="0 0 96 96" xmlns="http://www.w3.org/2000/svg" xmlns:xlink="http://www.w3.org/1999/xlink" id="Icons_TrafficLight" overflow="hidden"><style>
.MsftOfcThm_Background1_Fill {
 fill:#FFFFFF; 
}
</style>
<path d=" M 28 18 L 14.46 18 C 14.46 18 14.91 24.32 19.46 26.12 C 20.96 26.72 21.26 28.51 21.3 29.64 C 21.3 29.82 21.3 30.64 21.3 30.64 C 21.5884 33.3863 24.0485 35.3789 26.7948 35.0905 C 27.2066 35.0473 27.6114 34.953 28 34.81 Z" stroke="none" stroke-width="1" stroke-dasharray="" stroke-dashoffset="1" fill="#FFFFFF" fill-opacity="1"/><path d=" M 28 38 L 14.46 38 C 14.46 38 14.91 44.32 19.46 46.12 C 20.96 46.72 21.26 48.51 21.3 49.64 C 21.3 49.82 21.3 50.64 21.3 50.64 C 21.5884 53.3863 24.0485 55.3789 26.7948 55.0905 C 27.2066 55.0473 27.6114 54.953 28 54.81 Z" stroke="none" stroke-width="1" stroke-dasharray="" stroke-dashoffset="1" fill="#FFFFFF" fill-opacity="1"/><path d=" M 28 59 L 14.46 59 C 14.46 59 14.91 65.32 19.46 67.12 C 20.96 67.72 21.26 69.51 21.3 70.64 C 21.3 70.82 21.3 71.64 21.3 71.64 C 21.5884 74.3863 24.0485 76.3789 26.7948 76.0905 C 27.2066 76.0473 27.6114 75.953 28 75.81 Z" stroke="none" stroke-width="1" stroke-dasharray="" stroke-dashoffset="1" fill="#FFFFFF" fill-opacity="1"/><path d=" M 68 18 L 81.54 18 C 81.54 18 81.09 24.32 76.54 26.12 C 75.04 26.72 74.74 28.51 74.7 29.64 C 74.7 29.82 74.7 30.64 74.7 30.64 C 74.4116 33.3863 71.9515 35.3789 69.2052 35.0905 C 68.7934 35.0473 68.3886 34.953 68 34.81 Z" stroke="none" stroke-width="1" stroke-dasharray="" stroke-dashoffset="1" fill="#FFFFFF" fill-opacity="1"/><path d=" M 68 38 L 81.54 38 C 81.54 38 81.09 44.32 76.54 46.12 C 75.04 46.72 74.74 48.51 74.7 49.64 C 74.7 49.82 74.7 50.64 74.7 50.64 C 74.4116 53.3863 71.9515 55.3789 69.2052 55.0905 C 68.7934 55.0473 68.3886 54.953 68 54.81 Z" stroke="none" stroke-width="1" stroke-dasharray="" stroke-dashoffset="1" fill="#FFFFFF" fill-opacity="1"/><path d=" M 68 59 L 81.54 59 C 81.54 59 81.09 65.32 76.54 67.12 C 75.04 67.72 74.74 69.51 74.7 70.64 C 74.7 70.82 74.7 71.64 74.7 71.64 C 74.4116 74.3863 71.9515 76.3789 69.2052 76.0905 C 68.7934 76.0473 68.3886 75.953 68 75.81 Z" stroke="none" stroke-width="1" stroke-dasharray="" stroke-dashoffset="1" fill="#FFFFFF" fill-opacity="1"/><path d=" M 61 12 L 35 12 C 32.7909 12 31 13.7909 31 16 L 31 80 C 31 82.2091 32.7909 84 35 84 L 61 84 C 63.2091 84 65 82.2091 65 80 L 65 16 C 65 13.7909 63.2091 12 61 12 Z M 48 79 C 43.0294 79 39 74.9706 39 70 C 39 65.0294 43.0294 61 48 61 C 52.9706 61 57 65.0294 57 70 C 57 74.9706 52.9706 79 48 79 Z M 48 57 C 43.0294 57 39 52.9706 39 48 C 39 43.0294 43.0294 39 48 39 C 52.9706 39 57 43.0294 57 48 C 57 52.9706 52.9706 57 48 57 Z M 48 35 C 43.0294 35 39 30.9706 39 26 C 39 21.0294 43.0294 17 48 17 C 52.9706 17 57 21.0294 57 26 C 57 30.9706 52.9706 35 48 35 Z" stroke="none" stroke-width="1" stroke-dasharray="" stroke-dashoffset="1" fill="#FFFFFF" fill-opacity="1"/></svg>