<svg version="1.1" viewBox="0 0 96 96" xmlns="http://www.w3.org/2000/svg" xmlns:xlink="http://www.w3.org/1999/xlink" id="Icons_LargePaintBrush" overflow="hidden"><style>
.MsftOfcThm_Background1_Fill {
 fill:#FFFFFF; 
}
</style>
<path d=" M 83.7 15.1 C 82.9 15.9 81.7 15.9 81 15.1 C 80.2 14.3 80.2 13.1 81 12.4 C 81.8 11.7 83 11.6 83.7 12.4 C 84.4 13.2 84.4 14.4 83.7 15.1 Z M 86.4 9.7 C 84.6 7.9 82 7.5 79.8 8.6 C 78.6 9.1 74.5 13.5 74.5 13.5 C 68.4 19.6 60.3 29.6 57.3 35.4 L 44 22.2 C 43.2 21.4 42 21.4 41.2 22.2 L 37.2 26.2 L 69.9 58.9 L 73.9 54.9 C 74.7 54.1 74.7 52.9 73.9 52.1 L 60.7 38.8 C 66.6 35.7 76.5 27.7 82.6 21.6 C 82.6 21.6 87 17.4 87.5 16.3 C 88.6 14.1 88.2 11.5 86.4 9.7 Z" stroke="none" stroke-width="1" stroke-dasharray="" stroke-dashoffset="1" fill="#FFFFFF" fill-opacity="1"/><path d=" M 8.6 54.8 C 7.8 55.6 7.8 56.8 8.6 57.6 L 33.1 82.1 L 50.8 64.4 L 52.2 65.8 L 35.8 84.8 L 38.5 87.5 C 39.3 88.3 40.5 88.3 41.3 87.5 L 66.8 62 L 34.1 29.3 L 8.6 54.8 Z" stroke="none" stroke-width="1" stroke-dasharray="" stroke-dashoffset="1" fill="#FFFFFF" fill-opacity="1"/></svg>