<svg version="1.1" viewBox="0 0 96 96" xmlns="http://www.w3.org/2000/svg" xmlns:xlink="http://www.w3.org/1999/xlink" id="Icons_Saw" overflow="hidden"><style>
.MsftOfcThm_Background1_Fill {
 fill:#FFFFFF; 
}
</style>
<path d=" M 27.7 51.6 L 10.3 69 C 8.6 70.7 8.6 73.5 10.3 75.2 L 25.8 90.7 C 27.5 92.4 30.3 92.4 32 90.7 L 40.1 82.6 L 27.7 51.6 L 27.7 51.6 Z M 25.3 63.3 L 32.4 81 L 28.9 84.5 L 16.5 72.1 L 25.3 63.3" stroke="none" stroke-width="1" stroke-dasharray="" stroke-dashoffset="1" fill="#FFFFFF" fill-opacity="1"/><path d=" M 30.8 48.5 L 42.8 78.6 L 49.8 77.1 L 48.6 71.8 L 54.7 70.4 L 53.3 64.4 L 59.4 63 L 58 57 L 64 55.6 L 62.7 49.5 L 68 48.3 L 66.8 43.1 L 72.8 41.7 L 71.5 35.7 L 77.5 34.3 L 76.1 28.2 L 82.2 26.9 L 80.8 20.8 L 87 20.3 L 85.4 14.1 L 75.4 4 Z" stroke="none" stroke-width="1" stroke-dasharray="" stroke-dashoffset="1" fill="#FFFFFF" fill-opacity="1"/></svg>