<svg version="1.1" viewBox="0 0 96 96" xmlns="http://www.w3.org/2000/svg" xmlns:xlink="http://www.w3.org/1999/xlink" id="Icons_Screwdriver" overflow="hidden"><style>
.MsftOfcThm_Background1_Fill {
 fill:#FFFFFF; 
}
</style>
<path d=" M 88.2 4 L 78.7 11.6 L 75.9 16.9 L 76 17 L 42 51 L 37.9 46.8 L 35 49.7 C 36.1 50.8 36.1 52.5 35 53.5 C 33.9 54.6 32.2 54.6 31.2 53.5 L 5.4 79.2 L 5.5 79.3 C 3.2 82.5 3.6 86.9 6.4 89.7 C 9.2 92.5 13.6 92.9 16.8 90.6 L 16.9 90.7 L 17.9 89.7 L 42.6 65 C 41.5 63.9 41.5 62.2 42.6 61.2 C 43.7 60.1 45.4 60.1 46.4 61.2 L 49.2 58.4 L 45 54.1 L 79 20.1 L 79.1 20.2 L 84.4 17.4 L 92 7.8 L 88.2 4 Z" stroke="none" stroke-width="1" stroke-dasharray="" stroke-dashoffset="1" fill="#FFFFFF" fill-opacity="1"/></svg>