<svg version="1.1" viewBox="0 0 96 96" xmlns="http://www.w3.org/2000/svg" xmlns:xlink="http://www.w3.org/1999/xlink" id="Icons_Wrench" overflow="hidden"><style>
.MsftOfcThm_Background1_Fill {
 fill:#FFFFFF; 
}
</style>
<path d=" M 82.1 22.9 L 75 21 L 73.1 13.9 L 82.1 4.9 C 76.7 2.9 70.7 4 66.4 7.9 C 62.2 11.8 60.4 17.7 62 23.2 L 23.2 62 C 17.7 60.5 11.8 62.3 8 66.5 C 4.2 70.7 3 76.7 5 82.1 L 14 73.1 L 21 75 L 22.9 82.1 L 13.9 91.1 C 19.3 93.1 25.3 92 29.6 88.1 C 33.8 84.2 35.6 78.3 34 72.8 L 72.8 34 C 78.3 35.5 84.2 33.7 88 29.5 C 91.8 25.3 93 19.3 91 13.9 L 82.1 22.9 Z" stroke="none" stroke-width="1" stroke-dasharray="" stroke-dashoffset="1" fill="#FFFFFF" fill-opacity="1"/></svg>